# xmcd
#
# Track frame offsets: 
#        150
#        12800
#        41707
#        54162
#        70087
#        86945
#        113587
#        138217
#        165332
#        183745
#        199700
#        221062
#        250687
#        261557
#        286962
#        300462
#
# Disc length: 4246 seconds
#
# Revision: 0
# Processed by: cddbd v1.4PL0 Copyright (c) Steve Scherf et al.
# Submitted via: ExactAudioCopy v0.90b4
#
DISCID=df109410
DTITLE=Roy Buchanan - Secret Love
DYEAR=1995
DGENRE=Blues
TTITLE0=My Sonata
TTITLE1=Five String Blues
TTITLE2=Treat Her Right
TTITLE3=Sweet Dream
TTITLE4=I'm A Lone Soul Fugitive
TTITLE5=The Messiah Will Come Again
TTITLE6=Hey Joe
TTITLE7=Roy's Bluz
TTITLE8=It Should've Been Me
TTITLE9=Secret Love
TTITLE10=Please Don't Turn Me Away
TTITLE11=I Won't Tell You No Lies
TTITLE12=Thank You Lord
TTITLE13=Pete's Blue
TTITLE14=She Once Lived Here
TTITLE15=Can I Change My Mind
EXTD=
EXTT0=
EXTT1=
EXTT2=
EXTT3=
EXTT4=
EXTT5=
EXTT6=
EXTT7=
EXTT8=
EXTT9=
EXTT10=
EXTT11=
EXTT12=
EXTT13=
EXTT14=
EXTT15=
PLAYORDER=
